<?xml version="1.0" encoding="utf-8" standalone="no"?>
<!DOCTYPE svg PUBLIC "-//W3C//DTD SVG 1.1//EN"
  "http://www.w3.org/Graphics/SVG/1.1/DTD/svg11.dtd">
<svg xmlns:xlink="http://www.w3.org/1999/xlink" width="366.68125pt" height="323.356875pt" viewBox="0 0 366.68125 323.356875" xmlns="http://www.w3.org/2000/svg" version="1.1">
 <metadata>
  <rdf:RDF xmlns:dc="http://purl.org/dc/elements/1.1/" xmlns:cc="http://creativecommons.org/ns#" xmlns:rdf="http://www.w3.org/1999/02/22-rdf-syntax-ns#">
   <cc:Work>
    <dc:type rdf:resource="http://purl.org/dc/dcmitype/StillImage"/>
    <dc:date>2026-07-24T03:59:09.207473</dc:date>
    <dc:format>image/svg+xml</dc:format>
    <dc:creator>
     <cc:Agent>
      <dc:title>Matplotlib v3.11.0, https://matplotlib.org/</dc:title>
     </cc:Agent>
    </dc:creator>
   </cc:Work>
  </rdf:RDF>
 </metadata>
 <defs>
  <style type="text/css">*{stroke-linejoin: round; stroke-linecap: butt}</style>
 </defs>
 <g id="figure_1">
  <g id="patch_1">
   <path d="M 0 323.356875 
L 366.68125 323.356875 
L 366.68125 0 
L 0 0 
z
" style="fill: #ffffff"/>
  </g>
  <g id="axes_1">
   <g id="patch_2">
    <path d="M 52.483594 285.156094 
L 359.48125 285.156094 
L 359.48125 20.798437 
L 52.483594 20.798437 
z
" style="fill: #ffffff"/>
   </g>
   <g id="matplotlib.axis_1">
    <g id="xtick_1">
     <g id="line2d_1">
      <path d="M 76.052574 285.156094 
L 76.052574 20.798437 
" clip-path="url(#pe2413696ec)" style="fill: none; stroke: #eef2f2; stroke-width: 0.8; stroke-linecap: square"/>
     </g>
     <g id="line2d_2">
      <defs>
       <path id="mfe25fd8e3f" d="M 0 0 
L 0 3.5 
" style="stroke: #000000; stroke-width: 0.8"/>
      </defs>
      <g>
       <use xlink:href="#mfe25fd8e3f" x="76.052574" y="285.156094" style="stroke: #000000; stroke-width: 0.8"/>
      </g>
     </g>
     <g id="text_1">
      <!-- −20 -->
      <g transform="translate(65.500231 299.75375) scale(0.1 -0.1)">
       <defs>
        <path id="DejaVuSans-c9c" d="M 678 2272 
L 4684 2272 
L 4684 1741 
L 678 1741 
L 678 2272 
z
" transform="scale(0.015625)"/>
        <path id="DejaVuSans-15" d="M 1228 531 
L 3431 531 
L 3431 0 
L 469 0 
L 469 531 
Q 828 903 1448 1529 
Q 2069 2156 2228 2338 
Q 2531 2678 2651 2914 
Q 2772 3150 2772 3378 
Q 2772 3750 2511 3984 
Q 2250 4219 1831 4219 
Q 1534 4219 1204 4116 
Q 875 4013 500 3803 
L 500 4441 
Q 881 4594 1212 4672 
Q 1544 4750 1819 4750 
Q 2544 4750 2975 4387 
Q 3406 4025 3406 3419 
Q 3406 3131 3298 2873 
Q 3191 2616 2906 2266 
Q 2828 2175 2409 1742 
Q 1991 1309 1228 531 
z
" transform="scale(0.015625)"/>
        <path id="DejaVuSans-13" d="M 2034 4250 
Q 1547 4250 1301 3770 
Q 1056 3291 1056 2328 
Q 1056 1369 1301 889 
Q 1547 409 2034 409 
Q 2525 409 2770 889 
Q 3016 1369 3016 2328 
Q 3016 3291 2770 3770 
Q 2525 4250 2034 4250 
z
M 2034 4750 
Q 2819 4750 3233 4129 
Q 3647 3509 3647 2328 
Q 3647 1150 3233 529 
Q 2819 -91 2034 -91 
Q 1250 -91 836 529 
Q 422 1150 422 2328 
Q 422 3509 836 4129 
Q 1250 4750 2034 4750 
z
" transform="scale(0.015625)"/>
       </defs>
       <use xlink:href="#DejaVuSans-c9c"/>
       <use xlink:href="#DejaVuSans-15" transform="translate(83.796875 0)"/>
       <use xlink:href="#DejaVuSans-13" transform="translate(147.421875 0)"/>
      </g>
     </g>
    </g>
    <g id="xtick_2">
     <g id="line2d_3">
      <path d="M 126.795989 285.156094 
L 126.795989 20.798437 
" clip-path="url(#pe2413696ec)" style="fill: none; stroke: #eef2f2; stroke-width: 0.8; stroke-linecap: square"/>
     </g>
     <g id="line2d_4">
      <g>
       <use xlink:href="#mfe25fd8e3f" x="126.795989" y="285.156094" style="stroke: #000000; stroke-width: 0.8"/>
      </g>
     </g>
     <g id="text_2">
      <!-- −10 -->
      <g transform="translate(116.243645 299.75375) scale(0.1 -0.1)">
       <defs>
        <path id="DejaVuSans-14" d="M 794 531 
L 1825 531 
L 1825 4091 
L 703 3866 
L 703 4441 
L 1819 4666 
L 2450 4666 
L 2450 531 
L 3481 531 
L 3481 0 
L 794 0 
L 794 531 
z
" transform="scale(0.015625)"/>
       </defs>
       <use xlink:href="#DejaVuSans-c9c"/>
       <use xlink:href="#DejaVuSans-14" transform="translate(83.796875 0)"/>
       <use xlink:href="#DejaVuSans-13" transform="translate(147.421875 0)"/>
      </g>
     </g>
    </g>
    <g id="xtick_3">
     <g id="line2d_5">
      <path d="M 177.539403 285.156094 
L 177.539403 20.798437 
" clip-path="url(#pe2413696ec)" style="fill: none; stroke: #eef2f2; stroke-width: 0.8; stroke-linecap: square"/>
     </g>
     <g id="line2d_6">
      <g>
       <use xlink:href="#mfe25fd8e3f" x="177.539403" y="285.156094" style="stroke: #000000; stroke-width: 0.8"/>
      </g>
     </g>
     <g id="text_3">
      <!-- 0 -->
      <g transform="translate(174.358153 299.75375) scale(0.1 -0.1)">
       <use xlink:href="#DejaVuSans-13"/>
      </g>
     </g>
    </g>
    <g id="xtick_4">
     <g id="line2d_7">
      <path d="M 228.282817 285.156094 
L 228.282817 20.798437 
" clip-path="url(#pe2413696ec)" style="fill: none; stroke: #eef2f2; stroke-width: 0.8; stroke-linecap: square"/>
     </g>
     <g id="line2d_8">
      <g>
       <use xlink:href="#mfe25fd8e3f" x="228.282817" y="285.156094" style="stroke: #000000; stroke-width: 0.8"/>
      </g>
     </g>
     <g id="text_4">
      <!-- 10 -->
      <g transform="translate(221.920317 299.75375) scale(0.1 -0.1)">
       <use xlink:href="#DejaVuSans-14"/>
       <use xlink:href="#DejaVuSans-13" transform="translate(63.625 0)"/>
      </g>
     </g>
    </g>
    <g id="xtick_5">
     <g id="line2d_9">
      <path d="M 279.026231 285.156094 
L 279.026231 20.798437 
" clip-path="url(#pe2413696ec)" style="fill: none; stroke: #eef2f2; stroke-width: 0.8; stroke-linecap: square"/>
     </g>
     <g id="line2d_10">
      <g>
       <use xlink:href="#mfe25fd8e3f" x="279.026231" y="285.156094" style="stroke: #000000; stroke-width: 0.8"/>
      </g>
     </g>
     <g id="text_5">
      <!-- 20 -->
      <g transform="translate(272.663731 299.75375) scale(0.1 -0.1)">
       <use xlink:href="#DejaVuSans-15"/>
       <use xlink:href="#DejaVuSans-13" transform="translate(63.625 0)"/>
      </g>
     </g>
    </g>
    <g id="xtick_6">
     <g id="line2d_11">
      <path d="M 329.769646 285.156094 
L 329.769646 20.798437 
" clip-path="url(#pe2413696ec)" style="fill: none; stroke: #eef2f2; stroke-width: 0.8; stroke-linecap: square"/>
     </g>
     <g id="line2d_12">
      <g>
       <use xlink:href="#mfe25fd8e3f" x="329.769646" y="285.156094" style="stroke: #000000; stroke-width: 0.8"/>
      </g>
     </g>
     <g id="text_6">
      <!-- 30 -->
      <g transform="translate(323.407146 299.75375) scale(0.1 -0.1)">
       <defs>
        <path id="DejaVuSans-16" d="M 2597 2516 
Q 3050 2419 3304 2112 
Q 3559 1806 3559 1356 
Q 3559 666 3084 287 
Q 2609 -91 1734 -91 
Q 1441 -91 1130 -33 
Q 819 25 488 141 
L 488 750 
Q 750 597 1062 519 
Q 1375 441 1716 441 
Q 2309 441 2620 675 
Q 2931 909 2931 1356 
Q 2931 1769 2642 2001 
Q 2353 2234 1838 2234 
L 1294 2234 
L 1294 2753 
L 1863 2753 
Q 2328 2753 2575 2939 
Q 2822 3125 2822 3475 
Q 2822 3834 2567 4026 
Q 2313 4219 1838 4219 
Q 1578 4219 1281 4162 
Q 984 4106 628 3988 
L 628 4550 
Q 988 4650 1302 4700 
Q 1616 4750 1894 4750 
Q 2613 4750 3031 4423 
Q 3450 4097 3450 3541 
Q 3450 3153 3228 2886 
Q 3006 2619 2597 2516 
z
" transform="scale(0.015625)"/>
       </defs>
       <use xlink:href="#DejaVuSans-16"/>
       <use xlink:href="#DejaVuSans-13" transform="translate(63.625 0)"/>
      </g>
     </g>
    </g>
    <g id="text_7">
     <!-- Δx from rest (px) -->
     <g transform="translate(163.578516 313.754531) scale(0.1 -0.1)">
      <defs>
       <path id="DejaVuSans-329" d="M 2188 4044 
L 906 525 
L 3472 525 
L 2188 4044 
z
M 50 0 
L 1831 4666 
L 2547 4666 
L 4325 0 
L 50 0 
z
" transform="scale(0.015625)"/>
       <path id="DejaVuSans-5b" d="M 3513 3500 
L 2247 1797 
L 3578 0 
L 2900 0 
L 1881 1375 
L 863 0 
L 184 0 
L 1544 1831 
L 300 3500 
L 978 3500 
L 1906 2253 
L 2834 3500 
L 3513 3500 
z
" transform="scale(0.015625)"/>
       <path id="DejaVuSans-3" transform="scale(0.015625)"/>
       <path id="DejaVuSans-49" d="M 2375 4863 
L 2375 4384 
L 1825 4384 
Q 1516 4384 1395 4259 
Q 1275 4134 1275 3809 
L 1275 3500 
L 2222 3500 
L 2222 3053 
L 1275 3053 
L 1275 0 
L 697 0 
L 697 3053 
L 147 3053 
L 147 3500 
L 697 3500 
L 697 3744 
Q 697 4328 969 4595 
Q 1241 4863 1831 4863 
L 2375 4863 
z
" transform="scale(0.015625)"/>
       <path id="DejaVuSans-55" d="M 2631 2963 
Q 2534 3019 2420 3045 
Q 2306 3072 2169 3072 
Q 1681 3072 1420 2755 
Q 1159 2438 1159 1844 
L 1159 0 
L 581 0 
L 581 3500 
L 1159 3500 
L 1159 2956 
Q 1341 3275 1631 3429 
Q 1922 3584 2338 3584 
Q 2397 3584 2469 3576 
Q 2541 3569 2628 3553 
L 2631 2963 
z
" transform="scale(0.015625)"/>
       <path id="DejaVuSans-52" d="M 1959 3097 
Q 1497 3097 1228 2736 
Q 959 2375 959 1747 
Q 959 1119 1226 758 
Q 1494 397 1959 397 
Q 2419 397 2687 759 
Q 2956 1122 2956 1747 
Q 2956 2369 2687 2733 
Q 2419 3097 1959 3097 
z
M 1959 3584 
Q 2709 3584 3137 3096 
Q 3566 2609 3566 1747 
Q 3566 888 3137 398 
Q 2709 -91 1959 -91 
Q 1206 -91 779 398 
Q 353 888 353 1747 
Q 353 2609 779 3096 
Q 1206 3584 1959 3584 
z
" transform="scale(0.015625)"/>
       <path id="DejaVuSans-50" d="M 3328 2828 
Q 3544 3216 3844 3400 
Q 4144 3584 4550 3584 
Q 5097 3584 5394 3201 
Q 5691 2819 5691 2113 
L 5691 0 
L 5113 0 
L 5113 2094 
Q 5113 2597 4934 2840 
Q 4756 3084 4391 3084 
Q 3944 3084 3684 2787 
Q 3425 2491 3425 1978 
L 3425 0 
L 2847 0 
L 2847 2094 
Q 2847 2600 2669 2842 
Q 2491 3084 2119 3084 
Q 1678 3084 1418 2786 
Q 1159 2488 1159 1978 
L 1159 0 
L 581 0 
L 581 3500 
L 1159 3500 
L 1159 2956 
Q 1356 3278 1631 3431 
Q 1906 3584 2284 3584 
Q 2666 3584 2933 3390 
Q 3200 3197 3328 2828 
z
" transform="scale(0.015625)"/>
       <path id="DejaVuSans-48" d="M 3597 1894 
L 3597 1613 
L 953 1613 
Q 991 1019 1311 708 
Q 1631 397 2203 397 
Q 2534 397 2845 478 
Q 3156 559 3463 722 
L 3463 178 
Q 3153 47 2828 -22 
Q 2503 -91 2169 -91 
Q 1331 -91 842 396 
Q 353 884 353 1716 
Q 353 2575 817 3079 
Q 1281 3584 2069 3584 
Q 2775 3584 3186 3129 
Q 3597 2675 3597 1894 
z
M 3022 2063 
Q 3016 2534 2758 2815 
Q 2500 3097 2075 3097 
Q 1594 3097 1305 2825 
Q 1016 2553 972 2059 
L 3022 2063 
z
" transform="scale(0.015625)"/>
       <path id="DejaVuSans-56" d="M 2834 3397 
L 2834 2853 
Q 2591 2978 2328 3040 
Q 2066 3103 1784 3103 
Q 1356 3103 1142 2972 
Q 928 2841 928 2578 
Q 928 2378 1081 2264 
Q 1234 2150 1697 2047 
L 1894 2003 
Q 2506 1872 2764 1633 
Q 3022 1394 3022 966 
Q 3022 478 2636 193 
Q 2250 -91 1575 -91 
Q 1294 -91 989 -36 
Q 684 19 347 128 
L 347 722 
Q 666 556 975 473 
Q 1284 391 1588 391 
Q 1994 391 2212 530 
Q 2431 669 2431 922 
Q 2431 1156 2273 1281 
Q 2116 1406 1581 1522 
L 1381 1569 
Q 847 1681 609 1914 
Q 372 2147 372 2553 
Q 372 3047 722 3315 
Q 1072 3584 1716 3584 
Q 2034 3584 2315 3537 
Q 2597 3491 2834 3397 
z
" transform="scale(0.015625)"/>
       <path id="DejaVuSans-57" d="M 1172 4494 
L 1172 3500 
L 2356 3500 
L 2356 3053 
L 1172 3053 
L 1172 1153 
Q 1172 725 1289 603 
Q 1406 481 1766 481 
L 2356 481 
L 2356 0 
L 1766 0 
Q 1100 0 847 248 
Q 594 497 594 1153 
L 594 3053 
L 172 3053 
L 172 3500 
L 594 3500 
L 594 4494 
L 1172 4494 
z
" transform="scale(0.015625)"/>
       <path id="DejaVuSans-b" d="M 1984 4856 
Q 1566 4138 1362 3434 
Q 1159 2731 1159 2009 
Q 1159 1288 1364 580 
Q 1569 -128 1984 -844 
L 1484 -844 
Q 1016 -109 783 600 
Q 550 1309 550 2009 
Q 550 2706 781 3412 
Q 1013 4119 1484 4856 
L 1984 4856 
z
" transform="scale(0.015625)"/>
       <path id="DejaVuSans-53" d="M 1159 525 
L 1159 -1331 
L 581 -1331 
L 581 3500 
L 1159 3500 
L 1159 2969 
Q 1341 3281 1617 3432 
Q 1894 3584 2278 3584 
Q 2916 3584 3314 3078 
Q 3713 2572 3713 1747 
Q 3713 922 3314 415 
Q 2916 -91 2278 -91 
Q 1894 -91 1617 61 
Q 1341 213 1159 525 
z
M 3116 1747 
Q 3116 2381 2855 2742 
Q 2594 3103 2138 3103 
Q 1681 3103 1420 2742 
Q 1159 2381 1159 1747 
Q 1159 1113 1420 752 
Q 1681 391 2138 391 
Q 2594 391 2855 752 
Q 3116 1113 3116 1747 
z
" transform="scale(0.015625)"/>
       <path id="DejaVuSans-c" d="M 513 4856 
L 1013 4856 
Q 1481 4119 1714 3412 
Q 1947 2706 1947 2009 
Q 1947 1309 1714 600 
Q 1481 -109 1013 -844 
L 513 -844 
Q 928 -128 1133 580 
Q 1338 1288 1338 2009 
Q 1338 2731 1133 3434 
Q 928 4138 513 4856 
z
" transform="scale(0.015625)"/>
      </defs>
      <use xlink:href="#DejaVuSans-329"/>
      <use xlink:href="#DejaVuSans-5b" transform="translate(68.40625 0)"/>
      <use xlink:href="#DejaVuSans-3" transform="translate(127.59375 0)"/>
      <use xlink:href="#DejaVuSans-49" transform="translate(159.375 0)"/>
      <use xlink:href="#DejaVuSans-55" transform="translate(194.578125 0)"/>
      <use xlink:href="#DejaVuSans-52" transform="translate(233.484375 0)"/>
      <use xlink:href="#DejaVuSans-50" transform="translate(294.671875 0)"/>
      <use xlink:href="#DejaVuSans-3" transform="translate(392.078125 0)"/>
      <use xlink:href="#DejaVuSans-55" transform="translate(423.859375 0)"/>
      <use xlink:href="#DejaVuSans-48" transform="translate(462.765625 0)"/>
      <use xlink:href="#DejaVuSans-56" transform="translate(524.296875 0)"/>
      <use xlink:href="#DejaVuSans-57" transform="translate(576.390625 0)"/>
      <use xlink:href="#DejaVuSans-3" transform="translate(615.59375 0)"/>
      <use xlink:href="#DejaVuSans-b" transform="translate(647.375 0)"/>
      <use xlink:href="#DejaVuSans-53" transform="translate(686.390625 0)"/>
      <use xlink:href="#DejaVuSans-5b" transform="translate(749.875 0)"/>
      <use xlink:href="#DejaVuSans-c" transform="translate(809.0625 0)"/>
     </g>
    </g>
   </g>
   <g id="matplotlib.axis_2">
    <g id="ytick_1">
     <g id="line2d_13">
      <path d="M 52.483594 283.25879 
L 359.48125 283.25879 
" clip-path="url(#pe2413696ec)" style="fill: none; stroke: #eef2f2; stroke-width: 0.8; stroke-linecap: square"/>
     </g>
     <g id="line2d_14">
      <defs>
       <path id="mc3e24db047" d="M 0 0 
L -3.5 0 
" style="stroke: #000000; stroke-width: 0.8"/>
      </defs>
      <g>
       <use xlink:href="#mc3e24db047" x="52.483594" y="283.25879" style="stroke: #000000; stroke-width: 0.8"/>
      </g>
     </g>
     <g id="text_8">
      <!-- −0.2 -->
      <g transform="translate(21.200781 287.057618) scale(0.1 -0.1)">
       <defs>
        <path id="DejaVuSans-11" d="M 684 794 
L 1344 794 
L 1344 0 
L 684 0 
L 684 794 
z
" transform="scale(0.015625)"/>
       </defs>
       <use xlink:href="#DejaVuSans-c9c"/>
       <use xlink:href="#DejaVuSans-13" transform="translate(83.796875 0)"/>
       <use xlink:href="#DejaVuSans-11" transform="translate(147.421875 0)"/>
       <use xlink:href="#DejaVuSans-15" transform="translate(179.203125 0)"/>
      </g>
     </g>
    </g>
    <g id="ytick_2">
     <g id="line2d_15">
      <path d="M 52.483594 235.193762 
L 359.48125 235.193762 
" clip-path="url(#pe2413696ec)" style="fill: none; stroke: #eef2f2; stroke-width: 0.8; stroke-linecap: square"/>
     </g>
     <g id="line2d_16">
      <g>
       <use xlink:href="#mc3e24db047" x="52.483594" y="235.193762" style="stroke: #000000; stroke-width: 0.8"/>
      </g>
     </g>
     <g id="text_9">
      <!-- 0.0 -->
      <g transform="translate(29.580469 238.99259) scale(0.1 -0.1)">
       <use xlink:href="#DejaVuSans-13"/>
       <use xlink:href="#DejaVuSans-11" transform="translate(63.625 0)"/>
       <use xlink:href="#DejaVuSans-13" transform="translate(95.40625 0)"/>
      </g>
     </g>
    </g>
    <g id="ytick_3">
     <g id="line2d_17">
      <path d="M 52.483594 187.128733 
L 359.48125 187.128733 
" clip-path="url(#pe2413696ec)" style="fill: none; stroke: #eef2f2; stroke-width: 0.8; stroke-linecap: square"/>
     </g>
     <g id="line2d_18">
      <g>
       <use xlink:href="#mc3e24db047" x="52.483594" y="187.128733" style="stroke: #000000; stroke-width: 0.8"/>
      </g>
     </g>
     <g id="text_10">
      <!-- 0.2 -->
      <g transform="translate(29.580469 190.927561) scale(0.1 -0.1)">
       <use xlink:href="#DejaVuSans-13"/>
       <use xlink:href="#DejaVuSans-11" transform="translate(63.625 0)"/>
       <use xlink:href="#DejaVuSans-15" transform="translate(95.40625 0)"/>
      </g>
     </g>
    </g>
    <g id="ytick_4">
     <g id="line2d_19">
      <path d="M 52.483594 139.063705 
L 359.48125 139.063705 
" clip-path="url(#pe2413696ec)" style="fill: none; stroke: #eef2f2; stroke-width: 0.8; stroke-linecap: square"/>
     </g>
     <g id="line2d_20">
      <g>
       <use xlink:href="#mc3e24db047" x="52.483594" y="139.063705" style="stroke: #000000; stroke-width: 0.8"/>
      </g>
     </g>
     <g id="text_11">
      <!-- 0.4 -->
      <g transform="translate(29.580469 142.862533) scale(0.1 -0.1)">
       <defs>
        <path id="DejaVuSans-17" d="M 2419 4116 
L 825 1625 
L 2419 1625 
L 2419 4116 
z
M 2253 4666 
L 3047 4666 
L 3047 1625 
L 3713 1625 
L 3713 1100 
L 3047 1100 
L 3047 0 
L 2419 0 
L 2419 1100 
L 313 1100 
L 313 1709 
L 2253 4666 
z
" transform="scale(0.015625)"/>
       </defs>
       <use xlink:href="#DejaVuSans-13"/>
       <use xlink:href="#DejaVuSans-11" transform="translate(63.625 0)"/>
       <use xlink:href="#DejaVuSans-17" transform="translate(95.40625 0)"/>
      </g>
     </g>
    </g>
    <g id="ytick_5">
     <g id="line2d_21">
      <path d="M 52.483594 90.998676 
L 359.48125 90.998676 
" clip-path="url(#pe2413696ec)" style="fill: none; stroke: #eef2f2; stroke-width: 0.8; stroke-linecap: square"/>
     </g>
     <g id="line2d_22">
      <g>
       <use xlink:href="#mc3e24db047" x="52.483594" y="90.998676" style="stroke: #000000; stroke-width: 0.8"/>
      </g>
     </g>
     <g id="text_12">
      <!-- 0.6 -->
      <g transform="translate(29.580469 94.797504) scale(0.1 -0.1)">
       <defs>
        <path id="DejaVuSans-19" d="M 2113 2584 
Q 1688 2584 1439 2293 
Q 1191 2003 1191 1497 
Q 1191 994 1439 701 
Q 1688 409 2113 409 
Q 2538 409 2786 701 
Q 3034 994 3034 1497 
Q 3034 2003 2786 2293 
Q 2538 2584 2113 2584 
z
M 3366 4563 
L 3366 3988 
Q 3128 4100 2886 4159 
Q 2644 4219 2406 4219 
Q 1781 4219 1451 3797 
Q 1122 3375 1075 2522 
Q 1259 2794 1537 2939 
Q 1816 3084 2150 3084 
Q 2853 3084 3261 2657 
Q 3669 2231 3669 1497 
Q 3669 778 3244 343 
Q 2819 -91 2113 -91 
Q 1303 -91 875 529 
Q 447 1150 447 2328 
Q 447 3434 972 4092 
Q 1497 4750 2381 4750 
Q 2619 4750 2861 4703 
Q 3103 4656 3366 4563 
z
" transform="scale(0.015625)"/>
       </defs>
       <use xlink:href="#DejaVuSans-13"/>
       <use xlink:href="#DejaVuSans-11" transform="translate(63.625 0)"/>
       <use xlink:href="#DejaVuSans-19" transform="translate(95.40625 0)"/>
      </g>
     </g>
    </g>
    <g id="ytick_6">
     <g id="line2d_23">
      <path d="M 52.483594 42.933648 
L 359.48125 42.933648 
" clip-path="url(#pe2413696ec)" style="fill: none; stroke: #eef2f2; stroke-width: 0.8; stroke-linecap: square"/>
     </g>
     <g id="line2d_24">
      <g>
       <use xlink:href="#mc3e24db047" x="52.483594" y="42.933648" style="stroke: #000000; stroke-width: 0.8"/>
      </g>
     </g>
     <g id="text_13">
      <!-- 0.8 -->
      <g transform="translate(29.580469 46.732476) scale(0.1 -0.1)">
       <defs>
        <path id="DejaVuSans-1b" d="M 2034 2216 
Q 1584 2216 1326 1975 
Q 1069 1734 1069 1313 
Q 1069 891 1326 650 
Q 1584 409 2034 409 
Q 2484 409 2743 651 
Q 3003 894 3003 1313 
Q 3003 1734 2745 1975 
Q 2488 2216 2034 2216 
z
M 1403 2484 
Q 997 2584 770 2862 
Q 544 3141 544 3541 
Q 544 4100 942 4425 
Q 1341 4750 2034 4750 
Q 2731 4750 3128 4425 
Q 3525 4100 3525 3541 
Q 3525 3141 3298 2862 
Q 3072 2584 2669 2484 
Q 3125 2378 3379 2068 
Q 3634 1759 3634 1313 
Q 3634 634 3220 271 
Q 2806 -91 2034 -91 
Q 1263 -91 848 271 
Q 434 634 434 1313 
Q 434 1759 690 2068 
Q 947 2378 1403 2484 
z
M 1172 3481 
Q 1172 3119 1398 2916 
Q 1625 2713 2034 2713 
Q 2441 2713 2670 2916 
Q 2900 3119 2900 3481 
Q 2900 3844 2670 4047 
Q 2441 4250 2034 4250 
Q 1625 4250 1398 4047 
Q 1172 3844 1172 3481 
z
" transform="scale(0.015625)"/>
       </defs>
       <use xlink:href="#DejaVuSans-13"/>
       <use xlink:href="#DejaVuSans-11" transform="translate(63.625 0)"/>
       <use xlink:href="#DejaVuSans-1b" transform="translate(95.40625 0)"/>
      </g>
     </g>
    </g>
    <g id="text_14">
     <!-- Δy from rest (px) -->
     <g transform="translate(14.798438 195.381172) rotate(-90) scale(0.1 -0.1)">
      <defs>
       <path id="DejaVuSans-5c" d="M 2059 -325 
Q 1816 -950 1584 -1140 
Q 1353 -1331 966 -1331 
L 506 -1331 
L 506 -850 
L 844 -850 
Q 1081 -850 1212 -737 
Q 1344 -625 1503 -206 
L 1606 56 
L 191 3500 
L 800 3500 
L 1894 763 
L 2988 3500 
L 3597 3500 
L 2059 -325 
z
" transform="scale(0.015625)"/>
      </defs>
      <use xlink:href="#DejaVuSans-329"/>
      <use xlink:href="#DejaVuSans-5c" transform="translate(68.40625 0)"/>
      <use xlink:href="#DejaVuSans-3" transform="translate(127.59375 0)"/>
      <use xlink:href="#DejaVuSans-49" transform="translate(159.375 0)"/>
      <use xlink:href="#DejaVuSans-55" transform="translate(194.578125 0)"/>
      <use xlink:href="#DejaVuSans-52" transform="translate(233.484375 0)"/>
      <use xlink:href="#DejaVuSans-50" transform="translate(294.671875 0)"/>
      <use xlink:href="#DejaVuSans-3" transform="translate(392.078125 0)"/>
      <use xlink:href="#DejaVuSans-55" transform="translate(423.859375 0)"/>
      <use xlink:href="#DejaVuSans-48" transform="translate(462.765625 0)"/>
      <use xlink:href="#DejaVuSans-56" transform="translate(524.296875 0)"/>
      <use xlink:href="#DejaVuSans-57" transform="translate(576.390625 0)"/>
      <use xlink:href="#DejaVuSans-3" transform="translate(615.59375 0)"/>
      <use xlink:href="#DejaVuSans-b" transform="translate(647.375 0)"/>
      <use xlink:href="#DejaVuSans-53" transform="translate(686.390625 0)"/>
      <use xlink:href="#DejaVuSans-5b" transform="translate(749.875 0)"/>
      <use xlink:href="#DejaVuSans-c" transform="translate(809.0625 0)"/>
     </g>
    </g>
   </g>
   <g id="PathCollection_1">
    <defs>
     <path id="C0_0_3aa3d042b2" d="M 0 1.870829 
C 0.49615 1.870829 0.972045 1.673706 1.322876 1.322876 
C 1.673706 0.972045 1.870829 0.49615 1.870829 -0 
C 1.870829 -0.49615 1.673706 -0.972045 1.322876 -1.322876 
C 0.972045 -1.673706 0.49615 -1.870829 0 -1.870829 
C -0.49615 -1.870829 -0.972045 -1.673706 -1.322876 -1.322876 
C -1.673706 -0.972045 -1.870829 -0.49615 -1.870829 0 
C -1.870829 0.49615 -1.673706 0.972045 -1.322876 1.322876 
C -0.972045 1.673706 -0.49615 1.870829 0 1.870829 
z
"/>
    </defs>
    <g clip-path="url(#pe2413696ec)">
     <use xlink:href="#C0_0_3aa3d042b2" x="218.668275" y="273.139837" style="fill: #0e6e78; fill-opacity: 0.6"/>
    </g>
    <g clip-path="url(#pe2413696ec)">
     <use xlink:href="#C0_0_3aa3d042b2" x="213.593934" y="273.139837" style="fill: #0e6e78; fill-opacity: 0.6"/>
    </g>
    <g clip-path="url(#pe2413696ec)">
     <use xlink:href="#C0_0_3aa3d042b2" x="218.668275" y="32.814695" style="fill: #0e6e78; fill-opacity: 0.6"/>
    </g>
    <g clip-path="url(#pe2413696ec)">
     <use xlink:href="#C0_0_3aa3d042b2" x="213.593934" y="32.814695" style="fill: #0e6e78; fill-opacity: 0.6"/>
    </g>
    <g clip-path="url(#pe2413696ec)">
     <use xlink:href="#C0_0_3aa3d042b2" x="218.668275" y="32.814695" style="fill: #0e6e78; fill-opacity: 0.6"/>
    </g>
    <g clip-path="url(#pe2413696ec)">
     <use xlink:href="#C0_0_3aa3d042b2" x="208.519593" y="273.139837" style="fill: #0e6e78; fill-opacity: 0.6"/>
    </g>
    <g clip-path="url(#pe2413696ec)">
     <use xlink:href="#C0_0_3aa3d042b2" x="208.519593" y="273.139837" style="fill: #0e6e78; fill-opacity: 0.6"/>
    </g>
    <g clip-path="url(#pe2413696ec)">
     <use xlink:href="#C0_0_3aa3d042b2" x="198.37091" y="273.139837" style="fill: #0e6e78; fill-opacity: 0.6"/>
    </g>
    <g clip-path="url(#pe2413696ec)">
     <use xlink:href="#C0_0_3aa3d042b2" x="193.296568" y="273.139837" style="fill: #0e6e78; fill-opacity: 0.6"/>
    </g>
    <g clip-path="url(#pe2413696ec)">
     <use xlink:href="#C0_0_3aa3d042b2" x="193.296568" y="273.139837" style="fill: #0e6e78; fill-opacity: 0.6"/>
    </g>
    <g clip-path="url(#pe2413696ec)">
     <use xlink:href="#C0_0_3aa3d042b2" x="193.296568" y="32.814695" style="fill: #0e6e78; fill-opacity: 0.6"/>
    </g>
    <g clip-path="url(#pe2413696ec)">
     <use xlink:href="#C0_0_3aa3d042b2" x="193.296568" y="273.139837" style="fill: #0e6e78; fill-opacity: 0.6"/>
    </g>
    <g clip-path="url(#pe2413696ec)">
     <use xlink:href="#C0_0_3aa3d042b2" x="198.37091" y="273.139837" style="fill: #0e6e78; fill-opacity: 0.6"/>
    </g>
    <g clip-path="url(#pe2413696ec)">
     <use xlink:href="#C0_0_3aa3d042b2" x="198.37091" y="273.139837" style="fill: #0e6e78; fill-opacity: 0.6"/>
    </g>
    <g clip-path="url(#pe2413696ec)">
     <use xlink:href="#C0_0_3aa3d042b2" x="198.37091" y="273.139837" style="fill: #0e6e78; fill-opacity: 0.6"/>
    </g>
    <g clip-path="url(#pe2413696ec)">
     <use xlink:href="#C0_0_3aa3d042b2" x="188.222227" y="273.139837" style="fill: #0e6e78; fill-opacity: 0.6"/>
    </g>
    <g clip-path="url(#pe2413696ec)">
     <use xlink:href="#C0_0_3aa3d042b2" x="188.222227" y="273.139837" style="fill: #0e6e78; fill-opacity: 0.6"/>
    </g>
    <g clip-path="url(#pe2413696ec)">
     <use xlink:href="#C0_0_3aa3d042b2" x="188.222227" y="32.814695" style="fill: #0e6e78; fill-opacity: 0.6"/>
    </g>
    <g clip-path="url(#pe2413696ec)">
     <use xlink:href="#C0_0_3aa3d042b2" x="127.33013" y="273.139837" style="fill: #0e6e78; fill-opacity: 0.6"/>
    </g>
    <g clip-path="url(#pe2413696ec)">
     <use xlink:href="#C0_0_3aa3d042b2" x="117.181447" y="273.139837" style="fill: #0e6e78; fill-opacity: 0.6"/>
    </g>
    <g clip-path="url(#pe2413696ec)">
     <use xlink:href="#C0_0_3aa3d042b2" x="112.107106" y="273.139837" style="fill: #0e6e78; fill-opacity: 0.6"/>
    </g>
    <g clip-path="url(#pe2413696ec)">
     <use xlink:href="#C0_0_3aa3d042b2" x="107.032764" y="273.139837" style="fill: #0e6e78; fill-opacity: 0.6"/>
    </g>
    <g clip-path="url(#pe2413696ec)">
     <use xlink:href="#C0_0_3aa3d042b2" x="96.884081" y="273.139837" style="fill: #0e6e78; fill-opacity: 0.6"/>
    </g>
    <g clip-path="url(#pe2413696ec)">
     <use xlink:href="#C0_0_3aa3d042b2" x="96.884081" y="273.139837" style="fill: #0e6e78; fill-opacity: 0.6"/>
    </g>
    <g clip-path="url(#pe2413696ec)">
     <use xlink:href="#C0_0_3aa3d042b2" x="96.884081" y="32.814695" style="fill: #0e6e78; fill-opacity: 0.6"/>
    </g>
    <g clip-path="url(#pe2413696ec)">
     <use xlink:href="#C0_0_3aa3d042b2" x="101.958423" y="273.139837" style="fill: #0e6e78; fill-opacity: 0.6"/>
    </g>
    <g clip-path="url(#pe2413696ec)">
     <use xlink:href="#C0_0_3aa3d042b2" x="147.627495" y="273.139837" style="fill: #0e6e78; fill-opacity: 0.6"/>
    </g>
    <g clip-path="url(#pe2413696ec)">
     <use xlink:href="#C0_0_3aa3d042b2" x="147.627495" y="273.139837" style="fill: #0e6e78; fill-opacity: 0.6"/>
    </g>
    <g clip-path="url(#pe2413696ec)">
     <use xlink:href="#C0_0_3aa3d042b2" x="345.526811" y="273.139837" style="fill: #0e6e78; fill-opacity: 0.6"/>
    </g>
    <g clip-path="url(#pe2413696ec)">
     <use xlink:href="#C0_0_3aa3d042b2" x="335.378128" y="273.139837" style="fill: #0e6e78; fill-opacity: 0.6"/>
    </g>
    <g clip-path="url(#pe2413696ec)">
     <use xlink:href="#C0_0_3aa3d042b2" x="76.586716" y="273.139837" style="fill: #0e6e78; fill-opacity: 0.6"/>
    </g>
    <g clip-path="url(#pe2413696ec)">
     <use xlink:href="#C0_0_3aa3d042b2" x="112.107106" y="273.139837" style="fill: #0e6e78; fill-opacity: 0.6"/>
    </g>
    <g clip-path="url(#pe2413696ec)">
     <use xlink:href="#C0_0_3aa3d042b2" x="208.519593" y="273.139837" style="fill: #0e6e78; fill-opacity: 0.6"/>
    </g>
    <g clip-path="url(#pe2413696ec)">
     <use xlink:href="#C0_0_3aa3d042b2" x="66.438033" y="273.139837" style="fill: #0e6e78; fill-opacity: 0.6"/>
    </g>
    <g clip-path="url(#pe2413696ec)">
     <use xlink:href="#C0_0_3aa3d042b2" x="335.378128" y="273.139837" style="fill: #0e6e78; fill-opacity: 0.6"/>
    </g>
    <g clip-path="url(#pe2413696ec)">
     <use xlink:href="#C0_0_3aa3d042b2" x="76.586716" y="273.139837" style="fill: #0e6e78; fill-opacity: 0.6"/>
    </g>
    <g clip-path="url(#pe2413696ec)">
     <use xlink:href="#C0_0_3aa3d042b2" x="208.519593" y="273.139837" style="fill: #0e6e78; fill-opacity: 0.6"/>
    </g>
    <g clip-path="url(#pe2413696ec)">
     <use xlink:href="#C0_0_3aa3d042b2" x="198.37091" y="273.139837" style="fill: #0e6e78; fill-opacity: 0.6"/>
    </g>
   </g>
   <g id="line2d_25">
    <path d="M 52.483594 235.193762 
L 359.48125 235.193762 
" clip-path="url(#pe2413696ec)" style="fill: none; stroke: #b9c2c4; stroke-width: 0.8; stroke-linecap: square"/>
   </g>
   <g id="line2d_26">
    <path d="M 177.539403 285.156094 
L 177.539403 20.798437 
" clip-path="url(#pe2413696ec)" style="fill: none; stroke: #b9c2c4; stroke-width: 0.8; stroke-linecap: square"/>
   </g>
   <g id="patch_3">
    <path d="M 52.483594 285.156094 
L 52.483594 20.798437 
" style="fill: none; stroke: #5b6a6a; stroke-width: 0.8; stroke-linejoin: miter; stroke-linecap: square"/>
   </g>
   <g id="patch_4">
    <path d="M 52.483594 285.156094 
L 359.48125 285.156094 
" style="fill: none; stroke: #5b6a6a; stroke-width: 0.8; stroke-linejoin: miter; stroke-linecap: square"/>
   </g>
   <g id="text_15">
    <!-- Idle tremor · 38 samples over 35 idle periods -->
    <g style="fill: #20302f" transform="translate(79.030078 14.798437) scale(0.1 -0.1)">
     <defs>
      <path id="DejaVuSans-Bold-2c" d="M 588 4666 
L 1791 4666 
L 1791 0 
L 588 0 
L 588 4666 
z
" transform="scale(0.015625)"/>
      <path id="DejaVuSans-Bold-47" d="M 2919 2988 
L 2919 4863 
L 4044 4863 
L 4044 0 
L 2919 0 
L 2919 506 
Q 2688 197 2409 53 
Q 2131 -91 1766 -91 
Q 1119 -91 703 423 
Q 288 938 288 1747 
Q 288 2556 703 3070 
Q 1119 3584 1766 3584 
Q 2128 3584 2408 3439 
Q 2688 3294 2919 2988 
z
M 2181 722 
Q 2541 722 2730 984 
Q 2919 1247 2919 1747 
Q 2919 2247 2730 2509 
Q 2541 2772 2181 2772 
Q 1825 2772 1636 2509 
Q 1447 2247 1447 1747 
Q 1447 1247 1636 984 
Q 1825 722 2181 722 
z
" transform="scale(0.015625)"/>
      <path id="DejaVuSans-Bold-4f" d="M 538 4863 
L 1656 4863 
L 1656 0 
L 538 0 
L 538 4863 
z
" transform="scale(0.015625)"/>
      <path id="DejaVuSans-Bold-48" d="M 4031 1759 
L 4031 1441 
L 1416 1441 
Q 1456 1047 1700 850 
Q 1944 653 2381 653 
Q 2734 653 3104 758 
Q 3475 863 3866 1075 
L 3866 213 
Q 3469 63 3072 -14 
Q 2675 -91 2278 -91 
Q 1328 -91 801 392 
Q 275 875 275 1747 
Q 275 2603 792 3093 
Q 1309 3584 2216 3584 
Q 3041 3584 3536 3087 
Q 4031 2591 4031 1759 
z
M 2881 2131 
Q 2881 2450 2695 2645 
Q 2509 2841 2209 2841 
Q 1884 2841 1681 2658 
Q 1478 2475 1428 2131 
L 2881 2131 
z
" transform="scale(0.015625)"/>
      <path id="DejaVuSans-Bold-3" transform="scale(0.015625)"/>
      <path id="DejaVuSans-Bold-57" d="M 1759 4494 
L 1759 3500 
L 2913 3500 
L 2913 2700 
L 1759 2700 
L 1759 1216 
Q 1759 972 1856 886 
Q 1953 800 2241 800 
L 2816 800 
L 2816 0 
L 1856 0 
Q 1194 0 917 276 
Q 641 553 641 1216 
L 641 2700 
L 84 2700 
L 84 3500 
L 641 3500 
L 641 4494 
L 1759 4494 
z
" transform="scale(0.015625)"/>
      <path id="DejaVuSans-Bold-55" d="M 3138 2547 
Q 2991 2616 2845 2648 
Q 2700 2681 2553 2681 
Q 2122 2681 1889 2404 
Q 1656 2128 1656 1613 
L 1656 0 
L 538 0 
L 538 3500 
L 1656 3500 
L 1656 2925 
Q 1872 3269 2151 3426 
Q 2431 3584 2822 3584 
Q 2878 3584 2943 3579 
Q 3009 3575 3134 3559 
L 3138 2547 
z
" transform="scale(0.015625)"/>
      <path id="DejaVuSans-Bold-50" d="M 3781 2919 
Q 3994 3244 4286 3414 
Q 4578 3584 4928 3584 
Q 5531 3584 5847 3212 
Q 6163 2841 6163 2131 
L 6163 0 
L 5038 0 
L 5038 1825 
Q 5041 1866 5042 1909 
Q 5044 1953 5044 2034 
Q 5044 2406 4934 2573 
Q 4825 2741 4581 2741 
Q 4263 2741 4089 2478 
Q 3916 2216 3909 1719 
L 3909 0 
L 2784 0 
L 2784 1825 
Q 2784 2406 2684 2573 
Q 2584 2741 2328 2741 
Q 2006 2741 1831 2477 
Q 1656 2213 1656 1722 
L 1656 0 
L 531 0 
L 531 3500 
L 1656 3500 
L 1656 2988 
Q 1863 3284 2130 3434 
Q 2397 3584 2719 3584 
Q 3081 3584 3359 3409 
Q 3638 3234 3781 2919 
z
" transform="scale(0.015625)"/>
      <path id="DejaVuSans-Bold-52" d="M 2203 2784 
Q 1831 2784 1636 2517 
Q 1441 2250 1441 1747 
Q 1441 1244 1636 976 
Q 1831 709 2203 709 
Q 2569 709 2762 976 
Q 2956 1244 2956 1747 
Q 2956 2250 2762 2517 
Q 2569 2784 2203 2784 
z
M 2203 3584 
Q 3106 3584 3614 3096 
Q 4122 2609 4122 1747 
Q 4122 884 3614 396 
Q 3106 -91 2203 -91 
Q 1297 -91 786 396 
Q 275 884 275 1747 
Q 275 2609 786 3096 
Q 1297 3584 2203 3584 
z
" transform="scale(0.015625)"/>
      <path id="DejaVuSans-Bold-79" d="M 653 2828 
L 1778 2828 
L 1778 1619 
L 653 1619 
L 653 2828 
z
" transform="scale(0.015625)"/>
      <path id="DejaVuSans-Bold-16" d="M 2981 2516 
Q 3453 2394 3698 2092 
Q 3944 1791 3944 1325 
Q 3944 631 3412 270 
Q 2881 -91 1863 -91 
Q 1503 -91 1142 -33 
Q 781 25 428 141 
L 428 1069 
Q 766 900 1098 814 
Q 1431 728 1753 728 
Q 2231 728 2486 893 
Q 2741 1059 2741 1369 
Q 2741 1688 2480 1852 
Q 2219 2016 1709 2016 
L 1228 2016 
L 1228 2791 
L 1734 2791 
Q 2188 2791 2409 2933 
Q 2631 3075 2631 3366 
Q 2631 3634 2415 3781 
Q 2200 3928 1806 3928 
Q 1516 3928 1219 3862 
Q 922 3797 628 3669 
L 628 4550 
Q 984 4650 1334 4700 
Q 1684 4750 2022 4750 
Q 2931 4750 3382 4451 
Q 3834 4153 3834 3553 
Q 3834 3144 3618 2883 
Q 3403 2622 2981 2516 
z
" transform="scale(0.015625)"/>
      <path id="DejaVuSans-Bold-1b" d="M 2228 2088 
Q 1891 2088 1709 1903 
Q 1528 1719 1528 1375 
Q 1528 1031 1709 848 
Q 1891 666 2228 666 
Q 2563 666 2741 848 
Q 2919 1031 2919 1375 
Q 2919 1722 2741 1905 
Q 2563 2088 2228 2088 
z
M 1350 2484 
Q 925 2613 709 2878 
Q 494 3144 494 3541 
Q 494 4131 934 4440 
Q 1375 4750 2228 4750 
Q 3075 4750 3515 4442 
Q 3956 4134 3956 3541 
Q 3956 3144 3739 2878 
Q 3522 2613 3097 2484 
Q 3572 2353 3814 2058 
Q 4056 1763 4056 1313 
Q 4056 619 3595 264 
Q 3134 -91 2228 -91 
Q 1319 -91 855 264 
Q 391 619 391 1313 
Q 391 1763 633 2058 
Q 875 2353 1350 2484 
z
M 1631 3419 
Q 1631 3141 1786 2991 
Q 1941 2841 2228 2841 
Q 2509 2841 2662 2991 
Q 2816 3141 2816 3419 
Q 2816 3697 2662 3845 
Q 2509 3994 2228 3994 
Q 1941 3994 1786 3844 
Q 1631 3694 1631 3419 
z
" transform="scale(0.015625)"/>
      <path id="DejaVuSans-Bold-56" d="M 3272 3391 
L 3272 2541 
Q 2913 2691 2578 2766 
Q 2244 2841 1947 2841 
Q 1628 2841 1473 2761 
Q 1319 2681 1319 2516 
Q 1319 2381 1436 2309 
Q 1553 2238 1856 2203 
L 2053 2175 
Q 2913 2066 3209 1816 
Q 3506 1566 3506 1031 
Q 3506 472 3093 190 
Q 2681 -91 1863 -91 
Q 1516 -91 1145 -36 
Q 775 19 384 128 
L 384 978 
Q 719 816 1070 734 
Q 1422 653 1784 653 
Q 2113 653 2278 743 
Q 2444 834 2444 1013 
Q 2444 1163 2330 1236 
Q 2216 1309 1875 1350 
L 1678 1375 
Q 931 1469 631 1722 
Q 331 1975 331 2491 
Q 331 3047 712 3315 
Q 1094 3584 1881 3584 
Q 2191 3584 2531 3537 
Q 2872 3491 3272 3391 
z
" transform="scale(0.015625)"/>
      <path id="DejaVuSans-Bold-44" d="M 2106 1575 
Q 1756 1575 1579 1456 
Q 1403 1338 1403 1106 
Q 1403 894 1545 773 
Q 1688 653 1941 653 
Q 2256 653 2472 879 
Q 2688 1106 2688 1447 
L 2688 1575 
L 2106 1575 
z
M 3816 1997 
L 3816 0 
L 2688 0 
L 2688 519 
Q 2463 200 2181 54 
Q 1900 -91 1497 -91 
Q 953 -91 614 226 
Q 275 544 275 1050 
Q 275 1666 698 1953 
Q 1122 2241 2028 2241 
L 2688 2241 
L 2688 2328 
Q 2688 2594 2478 2717 
Q 2269 2841 1825 2841 
Q 1466 2841 1156 2769 
Q 847 2697 581 2553 
L 581 3406 
Q 941 3494 1303 3539 
Q 1666 3584 2028 3584 
Q 2975 3584 3395 3211 
Q 3816 2838 3816 1997 
z
" transform="scale(0.015625)"/>
      <path id="DejaVuSans-Bold-53" d="M 1656 506 
L 1656 -1331 
L 538 -1331 
L 538 3500 
L 1656 3500 
L 1656 2988 
Q 1888 3294 2169 3439 
Q 2450 3584 2816 3584 
Q 3463 3584 3878 3070 
Q 4294 2556 4294 1747 
Q 4294 938 3878 423 
Q 3463 -91 2816 -91 
Q 2450 -91 2169 54 
Q 1888 200 1656 506 
z
M 2400 2772 
Q 2041 2772 1848 2508 
Q 1656 2244 1656 1747 
Q 1656 1250 1848 986 
Q 2041 722 2400 722 
Q 2759 722 2948 984 
Q 3138 1247 3138 1747 
Q 3138 2247 2948 2509 
Q 2759 2772 2400 2772 
z
" transform="scale(0.015625)"/>
      <path id="DejaVuSans-Bold-59" d="M 97 3500 
L 1216 3500 
L 2088 1081 
L 2956 3500 
L 4078 3500 
L 2700 0 
L 1472 0 
L 97 3500 
z
" transform="scale(0.015625)"/>
      <path id="DejaVuSans-Bold-18" d="M 678 4666 
L 3669 4666 
L 3669 3781 
L 1638 3781 
L 1638 3059 
Q 1775 3097 1914 3117 
Q 2053 3138 2203 3138 
Q 3056 3138 3531 2711 
Q 4006 2284 4006 1522 
Q 4006 766 3489 337 
Q 2972 -91 2053 -91 
Q 1656 -91 1267 -14 
Q 878 63 494 219 
L 494 1166 
Q 875 947 1217 837 
Q 1559 728 1863 728 
Q 2300 728 2551 942 
Q 2803 1156 2803 1522 
Q 2803 1891 2551 2103 
Q 2300 2316 1863 2316 
Q 1603 2316 1309 2248 
Q 1016 2181 678 2041 
L 678 4666 
z
" transform="scale(0.015625)"/>
      <path id="DejaVuSans-Bold-4c" d="M 538 3500 
L 1656 3500 
L 1656 0 
L 538 0 
L 538 3500 
z
M 538 4863 
L 1656 4863 
L 1656 3950 
L 538 3950 
L 538 4863 
z
" transform="scale(0.015625)"/>
     </defs>
     <use xlink:href="#DejaVuSans-Bold-2c"/>
     <use xlink:href="#DejaVuSans-Bold-47" transform="translate(37.203125 0)"/>
     <use xlink:href="#DejaVuSans-Bold-4f" transform="translate(108.78125 0)"/>
     <use xlink:href="#DejaVuSans-Bold-48" transform="translate(143.0625 0)"/>
     <use xlink:href="#DejaVuSans-Bold-3" transform="translate(210.890625 0)"/>
     <use xlink:href="#DejaVuSans-Bold-57" transform="translate(245.703125 0)"/>
     <use xlink:href="#DejaVuSans-Bold-55" transform="translate(293.5 0)"/>
     <use xlink:href="#DejaVuSans-Bold-48" transform="translate(342.8125 0)"/>
     <use xlink:href="#DejaVuSans-Bold-50" transform="translate(410.640625 0)"/>
     <use xlink:href="#DejaVuSans-Bold-52" transform="translate(514.84375 0)"/>
     <use xlink:href="#DejaVuSans-Bold-55" transform="translate(583.546875 0)"/>
     <use xlink:href="#DejaVuSans-Bold-3" transform="translate(632.859375 0)"/>
     <use xlink:href="#DejaVuSans-Bold-79" transform="translate(667.671875 0)"/>
     <use xlink:href="#DejaVuSans-Bold-3" transform="translate(705.65625 0)"/>
     <use xlink:href="#DejaVuSans-Bold-16" transform="translate(740.46875 0)"/>
     <use xlink:href="#DejaVuSans-Bold-1b" transform="translate(810.046875 0)"/>
     <use xlink:href="#DejaVuSans-Bold-3" transform="translate(879.625 0)"/>
     <use xlink:href="#DejaVuSans-Bold-56" transform="translate(914.4375 0)"/>
     <use xlink:href="#DejaVuSans-Bold-44" transform="translate(973.953125 0)"/>
     <use xlink:href="#DejaVuSans-Bold-50" transform="translate(1041.4375 0)"/>
     <use xlink:href="#DejaVuSans-Bold-53" transform="translate(1145.640625 0)"/>
     <use xlink:href="#DejaVuSans-Bold-4f" transform="translate(1217.21875 0)"/>
     <use xlink:href="#DejaVuSans-Bold-48" transform="translate(1251.5 0)"/>
     <use xlink:href="#DejaVuSans-Bold-56" transform="translate(1319.328125 0)"/>
     <use xlink:href="#DejaVuSans-Bold-3" transform="translate(1378.84375 0)"/>
     <use xlink:href="#DejaVuSans-Bold-52" transform="translate(1413.65625 0)"/>
     <use xlink:href="#DejaVuSans-Bold-59" transform="translate(1482.359375 0)"/>
     <use xlink:href="#DejaVuSans-Bold-48" transform="translate(1547.546875 0)"/>
     <use xlink:href="#DejaVuSans-Bold-55" transform="translate(1615.375 0)"/>
     <use xlink:href="#DejaVuSans-Bold-3" transform="translate(1664.6875 0)"/>
     <use xlink:href="#DejaVuSans-Bold-16" transform="translate(1699.5 0)"/>
     <use xlink:href="#DejaVuSans-Bold-18" transform="translate(1769.078125 0)"/>
     <use xlink:href="#DejaVuSans-Bold-3" transform="translate(1838.65625 0)"/>
     <use xlink:href="#DejaVuSans-Bold-4c" transform="translate(1873.46875 0)"/>
     <use xlink:href="#DejaVuSans-Bold-47" transform="translate(1907.75 0)"/>
     <use xlink:href="#DejaVuSans-Bold-4f" transform="translate(1979.328125 0)"/>
     <use xlink:href="#DejaVuSans-Bold-48" transform="translate(2013.609375 0)"/>
     <use xlink:href="#DejaVuSans-Bold-3" transform="translate(2081.4375 0)"/>
     <use xlink:href="#DejaVuSans-Bold-53" transform="translate(2116.25 0)"/>
     <use xlink:href="#DejaVuSans-Bold-48" transform="translate(2187.828125 0)"/>
     <use xlink:href="#DejaVuSans-Bold-55" transform="translate(2255.65625 0)"/>
     <use xlink:href="#DejaVuSans-Bold-4c" transform="translate(2304.96875 0)"/>
     <use xlink:href="#DejaVuSans-Bold-52" transform="translate(2339.25 0)"/>
     <use xlink:href="#DejaVuSans-Bold-47" transform="translate(2407.953125 0)"/>
     <use xlink:href="#DejaVuSans-Bold-56" transform="translate(2479.53125 0)"/>
    </g>
   </g>
  </g>
 </g>
 <defs>
  <clipPath id="pe2413696ec">
   <rect x="52.483594" y="20.798437" width="306.997656" height="264.357656"/>
  </clipPath>
 </defs>
</svg>
